<svg xmlns="http://www.w3.org/2000/svg" version="1.1" xmlns:xlink="http://www.w3.org/1999/xlink" xmlns:svgjs="http://svgjs.dev/svgjs" viewBox="0 0 1920 1080"><rect width="1920" height="1080" fill="#bbe0f2"></rect><g transform="matrix(0.5750000000000001,0.9959292143521044,-0.9959292143521044,0.5750000000000001,936.0043976869343,-703.6332339257963)"><path d="M0,-1080C3.671667863302112,-1006.6329363015147,18.182379526851324,-792.1563423179826,22.03000717981267,-639.7976178090881C25.877634832774017,-487.4388933001936,20.193736503487063,-326.161706959993,23.08576591776807,-165.84765294663302C25.97779533204908,-5.533598933273026,50.90839978798749,157.02623975414517,39.38218366549873,322.0867062710719C27.855967543009967,487.14717278799856,-44.22690810674156,668.5443144122544,-46.071530817164515,824.5151461549273C-47.91615352758747,980.4859778976002,26.485075252452976,1112.446231804513,28.314447402961008,1257.9116967271093C30.14381955346904,1403.3771616497056,-30.37622334695615,1546.9598851450235,-35.095297914116315,1697.3079356905052C-39.814372481276486,1847.655986235987,-5.849216319019386,2082.8846559484177,0,2160L 1920 2160 L 1920 -1080 Z" fill="url(&quot;#SvgjsLinearGradient1178&quot;)"></path><path d="M213.33333333333331,-1080C212.0860760477516,-989.9566087964639,197.02717761536087,-714.0089325759155,205.8497896198429,-539.7396527787836C214.67240162432495,-365.4703729816516,265.064515598153,-221.92616069471615,266.26900536022555,-34.38432121720818C267.4734951222981,153.1575182602998,230.90041719908172,397.2983878739085,213.07672819227832,585.5113840862641C195.25303918547493,773.7243802986197,160.42680943548226,918.8599556878993,159.32687131940523,1094.8936560569255C158.2269332033282,1270.9273564259515,197.47602249349472,1464.1958623099088,206.47709949581608,1641.7135863004212C215.47817649813743,1819.2313102909336,212.1906276937471,2073.6189310500704,213.33333333333331,2160L 1920 2160 L 1920 -1080 Z" fill="url(&quot;#SvgjsLinearGradient1179&quot;)"></path><path d="M426.66666666666663,-1080C420.58199917193343,-1007.0429533360989,395.76590986628696,-800.9740492515984,390.1586616982674,-642.2577200165937C384.5514135302478,-483.54139078158886,384.6125088553864,-290.2087676122442,393.02317765854934,-127.70202458997107C401.4338464617123,34.804718432301996,426.89091734375256,183.91638823492912,440.62267451724506,332.7827381170447C454.35443169073756,481.64908799916026,484.1475417718626,610.8150791820988,475.41372069950415,765.4960747027224C466.6798996271457,920.1770702233459,399.13069202265126,1098.6979988010876,388.2197480830944,1260.8687112407863C377.3088041435375,1423.039423680485,403.5402372982343,1588.6651345477121,409.948057062163,1738.5203493409144C416.35587682609173,1888.3755641341168,423.8802317325827,2089.753391556819,426.66666666666663,2160L 1920 2160 L 1920 -1080 Z" fill="url(&quot;#SvgjsLinearGradient1180&quot;)"></path><path d="M640,-1080C633.075845672869,-971.1843904120802,590.9846620729852,-640.885495136348,598.4550740372139,-427.1063424724812C605.9254860014426,-213.3271898086143,671.612066950583,-8.790492962749198,684.8224717853724,202.67491598320126C698.0328766201618,414.1403249291517,683.6861226137758,619.5043845369128,677.7175030459505,841.6861112032216C671.7488834781252,1063.8678378695304,655.2970048860795,1316.0462945149245,649.0107543784211,1535.7652759810542C642.7245038707626,1755.4842574471838,641.5017923964035,2055.960879330176,640,2160L 1920 2160 L 1920 -1080 Z" fill="url(&quot;#SvgjsLinearGradient1181&quot;)"></path><path d="M853.3333333333333,-1080C852.316531026221,-994.5924424747055,855.8803686439679,-720.6607617915943,847.2325194906599,-567.5546548482332C838.5846703373519,-414.4485479048721,803.748347835528,-309.34976581063825,801.4462384134849,-161.36335833983335C799.1441289914419,-13.376950869028434,829.9774423848602,165.48410739891528,833.419862958402,320.36378997659637C836.8622835319437,475.24347255427745,810.6335781205846,611.2611504800968,822.1007618547355,767.9147371262532C833.5679455888865,924.5683237724095,899.5877268251759,1100.6419377470193,902.2229653633074,1260.285309853534C904.8582039014389,1419.9286819600488,846.06046508852,1575.822521407598,837.9121930835244,1725.7749697653423C829.7639210785287,1875.7274181230866,850.7631432916985,2087.629161627557,853.3333333333333,2160L 1920 2160 L 1920 -1080 Z" fill="url(&quot;#SvgjsLinearGradient1182&quot;)"></path><path d="M1066.6666666666667,-1080C1058.4721865603387,-1009.6750182421787,1008.3120616629353,-814.593261387387,1017.4997860286986,-658.0501094530723C1026.687510394462,-501.50695751875764,1116.031282597034,-302.6925330215645,1121.7930128612463,-140.74108839411227C1127.5547431254586,21.210356233339922,1063.058091845867,167.48850707110256,1052.0701676139715,313.65855831164083C1041.082243382076,459.8286095521791,1053.2718817977893,577.4736451043218,1055.8654674698737,736.2792190491174C1058.459053141958,895.084792993913,1072.8892304752126,1113.021799938657,1067.6316816464782,1266.492001980414C1062.3741328177439,1419.962204022171,1024.4810103274365,1508.1824316297284,1024.3201744974679,1657.1004312996595C1024.1593386674992,1806.0184309695906,1059.6089179718003,2076.18340521661,1066.6666666666667,2160L 1920 2160 L 1920 -1080 Z" fill="url(&quot;#SvgjsLinearGradient1183&quot;)"></path><path d="M1280,-1080C1285.6529746350386,-980.1551698337998,1307.5883125449036,-693.5833068269752,1313.9178478102315,-480.9310190027992C1320.2473830755594,-268.27873117862316,1319.5560093130152,-27.16314180045427,1317.977211591968,195.9137269450561C1316.3984138709206,418.99059569056647,1316.6520434369386,629.6050182392913,1304.445061483948,857.530193470263C1292.2380795309573,1085.4553687012349,1248.8094967880156,1346.3864772425973,1244.7353198740243,1563.4647783308867C1240.661142960033,1780.5430794191761,1274.1225533123375,2060.5774630551477,1280,2160L 1920 2160 L 1920 -1080 Z" fill="url(&quot;#SvgjsLinearGradient1184&quot;)"></path><path d="M1493.3333333333333,-1080C1486.169991284194,-1015.9693658625253,1445.9780452876644,-823.7735216333322,1450.353281038499,-695.8161951751513C1454.7285167893338,-567.8588687169704,1521.746553268691,-458.888043735853,1519.5847478383414,-312.256041250915C1517.4229424079917,-165.62403876597708,1440.3291435312124,34.11151948731285,1437.3824484564009,183.9758197344764C1434.4357533815894,333.84011998164,1501.7999380661774,454.37880114622936,1501.9045773894723,586.9297602320663C1502.009216712767,719.4807193179033,1445.973554269823,858.9739127508458,1438.0102843961697,979.2815742494981C1430.0470145225165,1099.5892357481505,1448.3873860888411,1179.571872306454,1454.1249581475536,1308.7757292239808C1459.862530206266,1437.9795861415075,1465.9009875508139,1612.634003958655,1472.4357167484438,1754.5047157546583C1478.9704459460738,1896.3754275506615,1489.8503972358517,2092.4174526257766,1493.3333333333333,2160L 1920 2160 L 1920 -1080 Z" fill="url(&quot;#SvgjsLinearGradient1185&quot;)"></path><path d="M1706.6666666666665,-1080C1710.3546544368728,-971.7320243833935,1734.7674934076676,-637.0937930260185,1728.7945932879047,-430.39214630036133C1722.8216931681418,-223.69049957470418,1667.943810089394,-59.49214015058121,1670.8292659480883,160.20988035394282C1673.7147218067826,379.9119008584669,1748.293786218083,655.9916286476671,1746.1073284400698,887.8199767267829C1743.9208706620566,1119.6483248058987,1664.2839629089103,1339.149964949768,1657.7105192800097,1551.1799688286376C1651.1370756511092,1763.2099727075072,1698.5073087688904,2058.5299948047727,1706.6666666666665,2160L 1920 2160 L 1920 -1080 Z" fill="url(&quot;#SvgjsLinearGradient1186&quot;)"></path></g><defs><linearGradient x1="0.1" y1="0" x2="0" y2="1" id="SvgjsLinearGradient1178"><stop stop-color="#bbe0f2" offset="0"></stop><stop stop-color="#bbe9f2" offset="0"></stop></linearGradient><linearGradient x1="0.1" y1="0" x2="0" y2="1" id="SvgjsLinearGradient1179"><stop stop-color="#c2e3f3" offset="0"></stop><stop stop-color="#c2ebf3" offset="0.1111111111111111"></stop></linearGradient><linearGradient x1="0.1" y1="0" x2="0" y2="1" id="SvgjsLinearGradient1180"><stop stop-color="#cae7f5" offset="0"></stop><stop stop-color="#caeef5" offset="0.2222222222222222"></stop></linearGradient><linearGradient x1="0.1" y1="0" x2="0" y2="1" id="SvgjsLinearGradient1181"><stop stop-color="#d1eaf6" offset="0"></stop><stop stop-color="#d1f0f6" offset="0.3333333333333333"></stop></linearGradient><linearGradient x1="0.1" y1="0" x2="0" y2="1" id="SvgjsLinearGradient1182"><stop stop-color="#d9eef8" offset="0"></stop><stop stop-color="#d9f3f8" offset="0.4444444444444444"></stop></linearGradient><linearGradient x1="0.1" y1="0" x2="0" y2="1" id="SvgjsLinearGradient1183"><stop stop-color="#e0f1f9" offset="0"></stop><stop stop-color="#e0f5f9" offset="0.5555555555555556"></stop></linearGradient><linearGradient x1="0.1" y1="0" x2="0" y2="1" id="SvgjsLinearGradient1184"><stop stop-color="#e8f4fb" offset="0"></stop><stop stop-color="#e8f7fb" offset="0.6666666666666666"></stop></linearGradient><linearGradient x1="0.1" y1="0" x2="0" y2="1" id="SvgjsLinearGradient1185"><stop stop-color="#eff8fc" offset="0"></stop><stop stop-color="#effafc" offset="0.7777777777777778"></stop></linearGradient><linearGradient x1="0.1" y1="0" x2="0" y2="1" id="SvgjsLinearGradient1186"><stop stop-color="#f7fbfd" offset="0"></stop><stop stop-color="#f7fcfd" offset="0.8888888888888888"></stop></linearGradient></defs></svg>