<svg xmlns="http://www.w3.org/2000/svg" version="1.1" xmlns:xlink="http://www.w3.org/1999/xlink" xmlns:svgjs="http://svgjs.dev/svgjs" viewBox="0 0 1920 1080"><rect width="1920" height="1080" fill="#47b6e6"></rect><g transform="matrix(0.5750000000000001,0.9959292143521044,-0.9959292143521044,0.5750000000000001,934.591444214797,-700.3221712400973)"><path d="M0,-1080C-4.906384583282114,-998.521693879128,-36.18510267573778,-745.1206084735684,-29.438307499692687,-591.1301632747679C-22.69151232364759,-437.1397180759675,26.801839512801358,-300.4342081823751,40.480771056270584,-156.0573288071975C54.15970259973981,-11.68044943201997,58.370557850288534,124.66954525858557,52.635281761122656,275.13111297629723C46.90000567195678,425.5926806940089,23.522730752833006,587.5490719338429,6.069114521275289,746.7120774990724C-11.384501710282429,905.8750830643019,-58.92692445941286,1077.4817862364343,-52.08641562822365,1230.1091463676737C-45.245906797034436,1382.736506498913,38.43109823703994,1507.494429347787,47.11216750841055,1662.476238286508C55.79323677978116,1817.4580472252292,7.852027918068425,2077.0793730477512,0,2160L 1920 2160 L 1920 -1080 Z" fill="url(&quot;#SvgjsLinearGradient1133&quot;)"></path><path d="M213.33333333333331,-1080C221.81280205381174,-938.6287366320855,263.73601453937084,-496.82768585577134,264.21014565620385,-231.77241979251318C264.68427677303686,33.28284627074498,216.53241984482887,255.67067328420316,216.17812003433124,510.331596379549C215.82382022383362,764.9925194748948,262.55847791005107,1021.2483848428201,262.08434679321806,1296.193118779562C261.61021567638505,1571.1378527163038,221.45850224331411,2016.0321864632604,213.33333333333331,2160L 1920 2160 L 1920 -1080 Z" fill="url(&quot;#SvgjsLinearGradient1134&quot;)"></path><path d="M426.66666666666663,-1080C422.646456299305,-1019.2470424134145,394.6733673669306,-855.3659778304543,402.54540446249695,-715.482254480487C410.4174415580633,-575.5985311305196,471.5218222840569,-376.9758157347125,473.8988892400647,-240.69765990019627C476.2759561960725,-104.41950406568003,416.3397287610089,-19.89631221806094,416.80780619854374,102.18668052661053C417.27588363607856,224.269673271282,478.69839537163983,343.25804832282586,476.7073538652737,491.80029656783256C474.7163123589076,640.3425448128393,413.5778533059127,846.71334327369,404.86155716034705,993.4401699966505C396.1452610147814,1140.166996719611,427.7250217419804,1253.2628029513478,424.4095769918798,1372.1612569055958C421.0941322417792,1491.0597108598438,384.5927070472791,1575.5244365397382,384.9688886597435,1706.8308937221389C385.345070272208,1838.1373509045395,419.7170369988461,2084.4718156203567,426.66666666666663,2160L 1920 2160 L 1920 -1080 Z" fill="url(&quot;#SvgjsLinearGradient1135&quot;)"></path><path d="M640,-1080C645.7587518170089,-1013.3977324452778,674.2976736430883,-813.8651707335772,674.552510902054,-680.3863946716673C674.8073481610197,-546.9076186097574,650.5374389812985,-411.6141790866486,641.5290235537944,-279.1273436285407C632.5206081262904,-146.6405081704328,625.6723080076794,-31.29919677643602,620.5020183370298,114.53461807698C615.3317286663802,260.368432930396,611.5261229871827,453.9515840252767,610.5072855298968,595.8755454919554C609.4884480726108,737.7995069586342,606.5189378063153,844.3030448026223,614.3889935933139,966.0783868770524C622.2590493803125,1087.8537289514825,661.9751643106965,1195.0093783154325,657.7276202518885,1326.5275979385365C653.4800761930805,1458.0458175616404,591.8583326157806,1616.2756376054317,588.9037292404659,1755.1877046156756C585.9491258651511,1894.0997716259194,631.483954873411,2092.5312841026125,640,2160L 1920 2160 L 1920 -1080 Z" fill="url(&quot;#SvgjsLinearGradient1136&quot;)"></path><path d="M853.3333333333333,-1080C845.905308714517,-1005.0615086361253,800.2255518983225,-780.7457733639343,808.7651856204355,-630.3690518167517C817.3048193425486,-479.99233026956915,895.726574014971,-336.43116805213197,904.5711356660114,-177.7396707169048C913.4156973170518,-19.048173381677657,874.4772892291886,171.7666855954183,861.832555526678,321.77993219461126C849.1878218241674,471.79317879380426,833.9756382007088,579.4369341172588,828.7027334509479,722.339808878253C823.429828701187,865.2426836392473,818.3222577198467,1018.5977244576136,830.1951270281128,1179.1971807605764C842.0679963363789,1339.7966370635393,896.083581583008,1522.4694101561263,899.9399493005448,1685.9365466960303C903.7963170180815,1849.4036832359343,861.1011026612018,2080.9894244493385,853.3333333333333,2160L 1920 2160 L 1920 -1080 Z" fill="url(&quot;#SvgjsLinearGradient1137&quot;)"></path><path d="M1066.6666666666667,-1080C1071.0535175399973,-948.1081753816386,1099.1929255793439,-556.2707159868828,1092.9877719066499,-288.64905228983184C1086.7826182339559,-21.02738859278088,1030.4136771244926,243.9090194306553,1029.4357446305028,525.7299821823058C1028.457812136513,807.5509449339563,1080.9150232700165,1129.8983879171221,1087.1201769427105,1402.2767242200712C1093.3253306154045,1674.6550605230202,1070.0755850460073,2033.712787370012,1066.6666666666667,2160L 1920 2160 L 1920 -1080 Z" fill="url(&quot;#SvgjsLinearGradient1138&quot;)"></path><path d="M1280,-1080C1272.7223490002048,-1005.8327397823424,1234.194562718834,-778.5502408369214,1236.3340940012286,-634.9964386940542C1238.473625283623,-491.44263655118704,1282.0939171437171,-348.9952277214021,1292.8371876943672,-218.67718714279715C1303.5804582450173,-88.35914656419217,1311.9491376480973,15.623757420483031,1300.7937173051284,146.91180477757564C1289.6382969621595,278.1998521346683,1231.9240405558717,441.58511029007144,1225.9046656365542,569.0510969997586C1219.8852907172368,696.5170837094457,1252.210452230166,779.2011891523309,1264.6774677892242,911.7077250356984C1277.1444833482824,1044.214260919066,1291.2124023701958,1215.4693955391683,1300.7067589909027,1364.0903122999637C1310.2011156116096,1512.711229060759,1325.0947340119492,1670.7816109837981,1321.6436075134654,1803.433225600471C1318.1924810149817,1936.0848402171437,1286.9406012522443,2100.5722042667453,1280,2160L 1920 2160 L 1920 -1080 Z" fill="url(&quot;#SvgjsLinearGradient1139&quot;)"></path><path d="M1493.3333333333333,-1080C1501.5179878593026,-968.2924841717244,1538.544193174405,-622.2074880237602,1542.4412604891495,-409.75490503034644C1546.338327803894,-197.30232203693268,1531.3543381626355,-25.40197730853413,1516.7157372217991,194.71549796048237C1502.0771362809628,414.83297322949886,1455.2170510056405,696.5970287644486,1454.6096548441321,910.9499465837524C1454.0022586826237,1125.3028644030562,1506.6174138378824,1272.6579959735973,1513.0713602527492,1480.8330048763053C1519.525306667616,1689.0080137790133,1496.6230044865692,2046.8055008127176,1493.3333333333333,2160L 1920 2160 L 1920 -1080 Z" fill="url(&quot;#SvgjsLinearGradient1140&quot;)"></path><path d="M1706.6666666666665,-1080C1706.8176191456564,-977.9706419424807,1706.449249162821,-690.2752331185593,1707.5723815406059,-467.82385165488427C1708.6955139183908,-245.37247019120926,1718.8430407115375,39.7602194194896,1713.4054609333766,254.70828878204992C1707.9678811552158,469.65635814461024,1672.4760464500328,604.7895559031417,1674.9469028716405,821.8645645204778C1677.4177592932483,1038.9395731378138,1722.9439721638523,1334.1357679061462,1728.2305994630233,1557.1583404860664C1733.5172267621942,1780.1809130659867,1710.2606554660592,2059.526390081011,1706.6666666666665,2160L 1920 2160 L 1920 -1080 Z" fill="url(&quot;#SvgjsLinearGradient1141&quot;)"></path></g><defs><linearGradient x1="0.1" y1="0" x2="0" y2="1" id="SvgjsLinearGradient1133"><stop stop-color="#47b6e6" offset="0"></stop><stop stop-color="#47d0e6" offset="0"></stop></linearGradient><linearGradient x1="0.1" y1="0" x2="0" y2="1" id="SvgjsLinearGradient1134"><stop stop-color="#5bbee9" offset="0"></stop><stop stop-color="#5bd6e9" offset="0.1111111111111111"></stop></linearGradient><linearGradient x1="0.1" y1="0" x2="0" y2="1" id="SvgjsLinearGradient1135"><stop stop-color="#6ec6eb" offset="0"></stop><stop stop-color="#6edbeb" offset="0.2222222222222222"></stop></linearGradient><linearGradient x1="0.1" y1="0" x2="0" y2="1" id="SvgjsLinearGradient1136"><stop stop-color="#82cdee" offset="0"></stop><stop stop-color="#82dfee" offset="0.3333333333333333"></stop></linearGradient><linearGradient x1="0.1" y1="0" x2="0" y2="1" id="SvgjsLinearGradient1137"><stop stop-color="#96d5f1" offset="0"></stop><stop stop-color="#96e4f1" offset="0.4444444444444444"></stop></linearGradient><linearGradient x1="0.1" y1="0" x2="0" y2="1" id="SvgjsLinearGradient1138"><stop stop-color="#aaddf3" offset="0"></stop><stop stop-color="#aae9f3" offset="0.5555555555555556"></stop></linearGradient><linearGradient x1="0.1" y1="0" x2="0" y2="1" id="SvgjsLinearGradient1139"><stop stop-color="#bde5f6" offset="0"></stop><stop stop-color="#bdeef6" offset="0.6666666666666666"></stop></linearGradient><linearGradient x1="0.1" y1="0" x2="0" y2="1" id="SvgjsLinearGradient1140"><stop stop-color="#d1edf9" offset="0"></stop><stop stop-color="#d1f4f9" offset="0.7777777777777778"></stop></linearGradient><linearGradient x1="0.1" y1="0" x2="0" y2="1" id="SvgjsLinearGradient1141"><stop stop-color="#e5f5fb" offset="0"></stop><stop stop-color="#e5f9fb" offset="0.8888888888888888"></stop></linearGradient></defs></svg>